# xmcd
#
# Track frame offsets:
#	150
#	14225
#	32615
#	44595
#	60252
#	72775
#	88225
#	104062
#	120862
#	136197
#	151777
#	165817
#	179817
#	195782
#	207050
#	218807
#	232777
#	242450
#	255440
#	269627
#	282552
#	297360
#	311175
#	325135
#
# Disc length: 4506 seconds
#
# Revision: 1
# Processed by: cddbd v1.4PL0 Copyright (c) Steve Scherf et al.
# Submitted via: mwyoung-manual 1.0
#
DISCID=54119818
DTITLE=Lowell Fulsom - Tramp/Soul
DYEAR=1991
DGENRE=Blues
TTITLE0=Tramp
TTITLE1=I'm Sinking
TTITLE2=Get Your Game Up Tight
TTITLE3=Back Door Key
TTITLE4=Two Way Wishing
TTITLE5=Lonely Day
TTITLE6=Black Nights
TTITLE7=Year of 29
TTITLE8=No Hard Feelings
TTITLE9=Hustlers Game
TTITLE10=Goin' Home
TTITLE11=Pico
TTITLE12=Black Nights
TTITLE13=Talkin' Woman
TTITLE14=Shattered Dreams
TTITLE15=Sitting Here Thinking
TTITLE16=Little Angel
TTITLE17=Change Your Ways
TTITLE18=Blues Around Midnight
TTITLE19=Everytime It Rains
TTITLE20=Just One More Time
TTITLE21=Ask At Any Door In Town
TTITLE22=Too Many Drivers
TTITLE23=My Aching Back
EXTD=LABEL=Virgin Records\nID=V2-86300\n
EXTD=NOTE=2 Original Albums on 1 CD: Tramp (1-12) - Soul (13-24)
EXTT0=
EXTT1=
EXTT2=
EXTT3=
EXTT4=
EXTT5=
EXTT6=
EXTT7=
EXTT8=
EXTT9=
EXTT10=
EXTT11=
EXTT12=
EXTT13=
EXTT14=
EXTT15=
EXTT16=
EXTT17=
EXTT18=
EXTT19=
EXTT20=
EXTT21=
EXTT22=
EXTT23=
PLAYORDER=
